<svg xmlns="http://www.w3.org/2000/svg" version="1.1" xlink="http://www.w3.org/1999/xlink" xmlnsSvgjs="http://svgjs.com/svgjs" width="100%" height="100%" preserveAspectRatio="xMidYMid meet" viewBox="0 0 194.6343536376953 147.0030517578125" overflow="visible">
    <defs id="SvgjsDefs149330"></defs>
    <g id="SvgjsG149331" transform="scale(0.5159705159705159)" opacity="1">
    <g id="SvgjsG149332" className="4HJkNa03e" transform="translate(82.98939130434782, -10.4784584980237) scale(2.095691699604743)" lightContent="false" nonStrokable="false" fill="#2665ed">
        <path d="M50.4 5c-24.8 0-45 20.2-45 45s20.2 45 45 45 45-20.2 45-45-20.2-45-45-45zM33.6 69.5H23V58.9h10.6v10.6zm0-14.2H23V44.7h10.6v10.6zm0-14.2H23V30.5h10.6v10.6zm14.7 28.4H37.7V58.9h10.6v10.6zm0-14.2H37.7V44.7h10.6v10.6zm14.8 14.2H52.5V58.9h10.6v10.6zm0-14.2H52.5V44.7h10.6v10.6zm0-14.2H52.5V30.5h10.6v10.6zm14.7 28.4H67.2V58.9h10.6v10.6z"></path>
    </g>
    <g id="SvgjsG149333" className="text" transform="translate(188.61, 284.0259683794466) scale(1)" lightContent="false" fill="#2665ed">
        <path d="M-181.5 -6.23C-176.77 -1.49 -169.75 0.88 -160.45 0.88C-151.14 0.88 -144.12 -1.49 -139.39 -6.23C-134.65 -10.97 -132.28 -18.22 -132.28 -27.99C-132.28 -38.23 -134.63 -45.69 -139.34 -50.37C-144.05 -55.05 -151.09 -57.39 -160.45 -57.39C-169.86 -57.39 -176.91 -55.05 -181.59 -50.37C-186.27 -45.69 -188.61 -38.23 -188.61 -27.99C-188.61 -18.22 -186.24 -10.97 -181.5 -6.23ZM-150.05 -15.22C-152.24 -12.5 -155.71 -11.14 -160.45 -11.14C-165.24 -11.14 -168.74 -12.5 -170.93 -15.22C-173.12 -17.94 -174.22 -22.2 -174.22 -27.99C-174.22 -34.25 -173.14 -38.7 -170.98 -41.33C-168.81 -43.96 -165.3 -45.28 -160.45 -45.28C-155.65 -45.28 -152.17 -43.96 -150 -41.33C-147.84 -38.7 -146.76 -34.25 -146.76 -27.99C-146.76 -22.2 -147.85 -17.94 -150.05 -15.22Z M-125.08 -56.51L-125.08 0L-110.96 0L-110.96 -22.38L-88.84 -22.38L-88.84 0L-74.72 0L-74.72 -56.51L-88.84 -56.51L-88.84 -34.13L-110.96 -34.13L-110.96 -56.51Z M-58.26 0.04C-55.02 0.6 -51.52 0.88 -47.78 0.88C-40.06 0.88 -34.21 -0.61 -30.23 -3.6C-26.25 -6.58 -24.26 -10.65 -24.26 -15.79C-24.26 -18.78 -24.74 -21.37 -25.71 -23.56C-26.68 -25.75 -28.4 -27.7 -30.89 -29.4C-33.37 -31.09 -36.87 -32.55 -41.37 -33.78C-44.71 -34.66 -47.15 -35.38 -48.7 -35.93C-50.25 -36.49 -51.38 -37.13 -52.08 -37.86C-52.78 -38.59 -53.13 -39.57 -53.13 -40.8C-53.13 -42.73 -52.25 -44.03 -50.5 -44.71C-48.74 -45.38 -46.08 -45.72 -42.51 -45.72C-37.37 -45.72 -32.36 -44.75 -27.51 -42.82L-27.51 -54.93C-29.56 -55.63 -32.14 -56.22 -35.27 -56.68C-38.4 -57.15 -41.52 -57.39 -44.62 -57.39C-52.11 -57.39 -57.8 -55.97 -61.69 -53.13C-65.58 -50.29 -67.52 -46.15 -67.52 -40.71C-67.52 -37.67 -67.02 -35.14 -66.03 -33.12C-65.04 -31.11 -63.41 -29.38 -61.16 -27.95C-58.91 -26.51 -55.82 -25.21 -51.9 -24.04C-48.1 -22.93 -45.37 -22.07 -43.7 -21.45C-42.03 -20.84 -40.79 -20.11 -39.97 -19.26C-39.15 -18.41 -38.74 -17.26 -38.74 -15.79C-38.74 -13.69 -39.53 -12.3 -41.11 -11.63C-42.69 -10.95 -45.38 -10.62 -49.18 -10.62C-51.99 -10.62 -54.94 -10.95 -58.04 -11.63C-61.15 -12.3 -64.01 -13.22 -66.64 -14.39L-66.64 -2.37C-64.3 -1.32 -61.51 -0.51 -58.26 0.04Z M-6.19 -45.63L-6.19 0L7.94 0L7.94 -45.63L24.53 -45.63L24.53 -56.51L-22.77 -56.51L-22.77 -45.63Z M30.49 -6.23C35.23 -1.49 42.25 0.88 51.55 0.88C60.85 0.88 67.87 -1.49 72.61 -6.23C77.35 -10.97 79.72 -18.22 79.72 -27.99C79.72 -38.23 77.36 -45.69 72.65 -50.37C67.95 -55.05 60.91 -57.39 51.55 -57.39C42.13 -57.39 35.08 -55.05 30.4 -50.37C25.72 -45.69 23.38 -38.23 23.38 -27.99C23.38 -18.22 25.75 -10.97 30.49 -6.23ZM61.95 -15.22C59.76 -12.5 56.29 -11.14 51.55 -11.14C46.75 -11.14 43.26 -12.5 41.07 -15.22C38.87 -17.94 37.78 -22.2 37.78 -27.99C37.78 -34.25 38.86 -38.7 41.02 -41.33C43.19 -43.96 46.7 -45.28 51.55 -45.28C56.35 -45.28 59.83 -43.96 61.99 -41.33C64.16 -38.7 65.24 -34.25 65.24 -27.99C65.24 -22.2 64.14 -17.94 61.95 -15.22Z M90.82 -6.67C96.05 -1.64 103.56 0.88 113.33 0.88C119.58 0.88 125.29 0 130.44 -1.75L130.44 -14.22C125.46 -12.17 120.14 -11.14 114.47 -11.14C108.73 -11.14 104.45 -12.5 101.61 -15.22C98.77 -17.94 97.36 -22.14 97.36 -27.82C97.36 -33.84 98.72 -38.26 101.44 -41.07C104.16 -43.87 108.44 -45.28 114.29 -45.28C119.91 -45.28 125.26 -44.22 130.35 -42.12L130.35 -54.49C127.66 -55.43 124.95 -56.14 122.23 -56.64C119.51 -57.14 116.51 -57.39 113.24 -57.39C103.23 -57.39 95.69 -54.84 90.6 -49.75C85.51 -44.66 82.96 -37.35 82.96 -27.82C82.96 -18.75 85.58 -11.7 90.82 -6.67Z M137.63 -56.51L137.63 0L151.76 0L151.76 -17.11L158.43 -24.39L173.52 0L188.61 0L167.2 -33.43L187.38 -56.51L171.24 -56.51L151.76 -34.57L151.76 -56.51Z"></path>
    </g>
    </g>
</svg>