<svg xmlns="http://www.w3.org/2000/svg" viewBox="0 0 194.634 147.003" overflow="visible"><g fill="#2665ed"><path d="M97.318 0C70.502 0 48.66 21.843 48.66 48.66s21.843 48.658 48.66 48.658 48.659-21.842 48.659-48.659S124.135 0 97.318 0zM79.152 69.745H67.69V58.283h11.462v11.462zm0-15.355H67.69V42.928h11.462V54.39zm0-15.355H67.69V27.574h11.462v11.461zm15.896 30.71H83.586V58.283h11.462v11.462zm0-15.355H83.586V42.928h11.462V54.39zm16.003 15.355H99.59V58.283h11.462v11.462zm0-15.355H99.59V42.928h11.462V54.39zm0-15.355H99.59V27.574h11.462v11.461zm15.895 30.71h-11.462V58.283h11.462v11.462zM3.669 143.335c2.44 2.445 6.062 3.668 10.86 3.668 4.804 0 8.427-1.223 10.867-3.668 2.446-2.446 3.669-6.187 3.669-11.228 0-5.284-1.213-9.133-3.643-11.547-2.43-2.415-6.063-3.623-10.892-3.623-4.856 0-8.493 1.208-10.908 3.623C1.207 122.974 0 126.823 0 132.107c0 5.041 1.223 8.782 3.669 11.228Zm16.227-4.639c-1.13 1.403-2.92 2.105-5.366 2.105-2.472 0-4.278-.702-5.408-2.105-1.13-1.403-1.697-3.602-1.697-6.589 0-3.23.557-5.526 1.672-6.883 1.12-1.357 2.93-2.038 5.433-2.038 2.476 0 4.272.681 5.392 2.038 1.114 1.357 1.671 3.653 1.671 6.883 0 2.987-.562 5.186-1.697 6.589Zm12.884-21.304v29.157h7.285v-11.547h11.413v11.547h7.286v-29.157h-7.286v11.547H40.065v-11.547Zm34.477 29.178c1.672.289 3.477.433 5.407.433 3.983 0 7.002-.769 9.055-2.311 2.054-1.538 3.08-3.638 3.08-6.29 0-1.543-.247-2.88-.747-4.01s-1.388-2.135-2.673-3.013c-1.28-.871-3.086-1.625-5.408-2.26-1.723-.454-2.982-.825-3.782-1.109-.8-.289-1.382-.619-1.744-.996-.36-.376-.541-.882-.541-1.517 0-.995.454-1.666 1.357-2.017.908-.346 2.28-.521 4.122-.521 2.652 0 5.237.5 7.74 1.496v-6.248c-1.058-.361-2.39-.666-4.004-.903a32.47 32.47 0 0 0-4.824-.367c-3.865 0-6.8.733-8.808 2.199-2.007 1.465-3.008 3.601-3.008 6.408 0 1.568.258 2.874.769 3.916.51 1.037 1.352 1.93 2.512 2.668 1.161.743 2.756 1.413 4.778 2.017 1.961.573 3.37 1.017 4.231 1.336.862.315 1.502.692 1.925 1.13.423.439.635 1.032.635 1.79 0 1.084-.408 1.802-1.223 2.147-.816.351-2.204.521-4.164.521-1.45 0-2.972-.17-4.572-.52a22.576 22.576 0 0 1-4.437-1.425v6.202c1.207.542 2.647.96 4.324 1.244Zm26.866-23.565v23.544h7.291v-23.544h8.56v-5.613H85.569v5.613Zm18.926 20.33c2.446 2.445 6.068 3.668 10.866 3.668 4.799 0 8.421-1.223 10.867-3.668 2.446-2.446 3.668-6.187 3.668-11.228 0-5.284-1.217-9.133-3.648-11.547-2.425-2.415-6.057-3.623-10.887-3.623-4.86 0-8.498 1.208-10.912 3.623-2.415 2.414-3.622 6.263-3.622 11.547 0 5.041 1.222 8.782 3.668 11.228Zm16.233-4.639c-1.13 1.403-2.92 2.105-5.367 2.105-2.476 0-4.277-.702-5.407-2.105-1.135-1.403-1.697-3.602-1.697-6.589 0-3.23.557-5.526 1.671-6.883 1.12-1.357 2.931-2.038 5.433-2.038 2.477 0 4.273.681 5.387 2.038 1.12 1.357 1.677 3.653 1.677 6.883 0 2.987-.567 5.186-1.697 6.589Zm14.896 4.412c2.698 2.595 6.573 3.895 11.614 3.895 3.225 0 6.171-.454 8.828-1.357v-6.434c-2.57 1.058-5.314 1.59-8.24 1.59-2.961 0-5.17-.703-6.635-2.106-1.465-1.403-2.193-3.57-2.193-6.501 0-3.106.702-5.387 2.105-6.837 1.404-1.445 3.612-2.172 6.63-2.172 2.9 0 5.66.547 8.287 1.63v-6.382a28.065 28.065 0 0 0-4.19-1.11c-1.403-.258-2.951-.387-4.638-.387-5.165 0-9.056 1.316-11.682 3.942-2.626 2.627-3.942 6.399-3.942 11.316 0 4.68 1.352 8.317 4.056 10.913Zm24.152-25.716v29.157h7.29v-8.828l3.442-3.756 7.786 12.584h7.786L183.587 129.3 194 117.392h-8.328l-10.051 11.32v-11.32Z"/></g></svg>